<?xml version="1.0" encoding="UTF-8"?><svg xmlns="http://www.w3.org/2000/svg" viewBox="0 0 226.92 116.76"><defs><style>.e,.f{fill:#fff;}.g{stroke:#838382;}.g,.f{stroke-miterlimit:10;stroke-width:3px;}.g,.h{fill:#838382;}.f{stroke:#fff;}.i{fill:#979696;}</style></defs><g id="a"/><g id="b"><g id="c"><g><g id="d"><path class="i" d="M53.33,30.32v6.55h-11.84v5.2h8.73v6.25h-8.73v11.58h-8.23V30.32h20.06Z"/><path class="i" d="M65.04,30.32v29.59h-8.23V30.32h8.23Z"/><path class="i" d="M72.42,57.75c-2.21-1.64-3.4-3.98-3.57-7.03h8.77c.08,1.04,.39,1.79,.92,2.27,.53,.48,1.22,.71,2.06,.71,.76,0,1.38-.19,1.87-.57,.49-.38,.73-.9,.73-1.57,0-.87-.41-1.54-1.22-2.01-.81-.47-2.13-1.01-3.95-1.59-1.93-.64-3.49-1.27-4.68-1.87s-2.22-1.48-3.11-2.64c-.88-1.16-1.32-2.68-1.32-4.55s.48-3.53,1.43-4.89c.95-1.36,2.27-2.38,3.95-3.08,1.68-.7,3.58-1.05,5.71-1.05,3.44,0,6.19,.8,8.25,2.41,2.06,1.61,3.16,3.87,3.29,6.78h-8.94c-.03-.9-.3-1.57-.82-2.01-.52-.45-1.18-.67-1.99-.67-.62,0-1.12,.18-1.51,.55-.39,.36-.59,.88-.59,1.55,0,.56,.22,1.04,.65,1.45,.43,.41,.97,.76,1.62,1.05,.64,.29,1.6,.66,2.85,1.11,1.87,.64,3.42,1.28,4.64,1.91s2.27,1.51,3.15,2.64c.88,1.13,1.32,2.57,1.32,4.3s-.44,3.34-1.32,4.74c-.88,1.4-2.15,2.5-3.82,3.32-1.67,.81-3.63,1.22-5.9,1.22-3.44,0-6.27-.82-8.48-2.46Z"/><path class="i" d="M118.05,30.32v6.55h-7.89v23.04h-8.23v-23.04h-7.81v-6.55h23.92Z"/><path class="e" d="M34.08,68.27c1.22-2.28,2.94-4.06,5.18-5.33,2.24-1.27,4.81-1.91,7.72-1.91,3.69,0,6.8,.99,9.32,2.96s4.14,4.65,4.87,8.04h-8.86c-.53-1.12-1.27-1.97-2.2-2.56-.94-.59-2.02-.88-3.25-.88-1.9,0-3.42,.68-4.55,2.04-1.13,1.36-1.7,3.17-1.7,5.44s.57,4.12,1.7,5.48c1.13,1.36,2.65,2.04,4.55,2.04,1.23,0,2.31-.29,3.25-.88,.94-.59,1.67-1.44,2.2-2.56h8.86c-.73,3.39-2.35,6.06-4.87,8.04s-5.62,2.96-9.32,2.96c-2.91,0-5.48-.64-7.72-1.91-2.24-1.27-3.97-3.05-5.18-5.33-1.22-2.28-1.83-4.89-1.83-7.83s.61-5.5,1.83-7.79Z"/><path class="e" d="M91.56,61.32v29.59h-8.23v-11.88h-10.03v11.88h-8.23v-29.59h8.23v11.12h10.03v-11.12h8.23Z"/><path class="e" d="M102.81,89.25c-2.32-1.3-4.16-3.11-5.52-5.41-1.36-2.31-2.04-4.92-2.04-7.83s.68-5.52,2.04-7.83c1.36-2.31,3.2-4.11,5.52-5.39s4.87-1.93,7.64-1.93,5.35,.64,7.66,1.93c2.31,1.29,4.13,3.08,5.48,5.39,1.34,2.31,2.01,4.92,2.01,7.83s-.67,5.52-2.01,7.83c-1.34,2.31-3.18,4.11-5.5,5.41-2.32,1.3-4.87,1.95-7.64,1.95s-5.32-.65-7.64-1.95Zm12.61-7.74c1.22-1.37,1.83-3.2,1.83-5.5s-.61-4.2-1.83-5.56c-1.22-1.36-2.88-2.04-4.97-2.04s-3.79,.68-4.99,2.04c-1.2,1.36-1.8,3.21-1.8,5.56s.6,4.16,1.8,5.52c1.2,1.36,2.87,2.04,4.99,2.04s3.76-.69,4.97-2.06Z"/><path class="e" d="M144.28,90.91l-5.88-10.91h-.88v10.91h-8.23v-29.59h12.97c2.38,0,4.39,.41,6.04,1.24,1.65,.83,2.9,1.96,3.74,3.4,.84,1.44,1.26,3.06,1.26,4.85,0,2.01-.55,3.78-1.66,5.31-1.11,1.53-2.72,2.61-4.85,3.25l6.67,11.54h-9.19Zm-6.76-16.54h4.07c1.12,0,1.96-.27,2.52-.8,.56-.53,.84-1.3,.84-2.31,0-.95-.29-1.7-.86-2.25s-1.41-.82-2.5-.82h-4.07v6.17Z"/><path class="e" d="M176.91,63.19c2.34,1.25,4.13,2.99,5.39,5.23,1.26,2.24,1.89,4.8,1.89,7.68s-.64,5.4-1.91,7.64c-1.27,2.24-3.08,3.99-5.41,5.27-2.34,1.27-5.04,1.91-8.12,1.91h-11.71v-29.59h11.71c3.11,0,5.83,.62,8.16,1.87Zm-3.13,18.49c1.37-1.32,2.06-3.18,2.06-5.58s-.69-4.31-2.06-5.65c-1.37-1.33-3.26-1.99-5.67-1.99h-2.85v15.19h2.85c2.41,0,4.29-.66,5.67-1.97Z"/></g><g><path class="e" d="M55.22,27.58v6.55h-11.84v5.2h8.73v6.25h-8.73v11.58h-8.23V27.58h20.06Z"/><path class="e" d="M66.92,27.58v29.59h-8.23V27.58h8.23Z"/><path class="e" d="M74.31,55.01c-2.21-1.64-3.4-3.98-3.57-7.03h8.77c.08,1.04,.39,1.79,.92,2.27,.53,.48,1.22,.71,2.06,.71,.76,0,1.38-.19,1.87-.57,.49-.38,.73-.9,.73-1.57,0-.87-.41-1.54-1.22-2.01-.81-.47-2.13-1.01-3.95-1.59-1.93-.64-3.49-1.27-4.68-1.87s-2.22-1.48-3.11-2.64c-.88-1.16-1.32-2.68-1.32-4.55s.48-3.53,1.43-4.89c.95-1.36,2.27-2.38,3.95-3.08,1.68-.7,3.58-1.05,5.71-1.05,3.44,0,6.19,.8,8.25,2.41,2.06,1.61,3.16,3.87,3.29,6.78h-8.94c-.03-.9-.3-1.57-.82-2.01-.52-.45-1.18-.67-1.99-.67-.62,0-1.12,.18-1.51,.55-.39,.36-.59,.88-.59,1.55,0,.56,.22,1.04,.65,1.45,.43,.41,.97,.76,1.62,1.05,.64,.29,1.6,.66,2.85,1.11,1.87,.64,3.42,1.28,4.64,1.91s2.27,1.51,3.15,2.64c.88,1.13,1.32,2.57,1.32,4.3s-.44,3.34-1.32,4.74c-.88,1.4-2.15,2.5-3.82,3.32-1.67,.81-3.63,1.22-5.9,1.22-3.44,0-6.27-.82-8.48-2.46Z"/><path class="e" d="M119.93,27.58v6.55h-7.89v23.04h-8.23v-23.04h-7.81v-6.55h23.92Z"/><path class="h" d="M35.97,65.52c1.22-2.28,2.94-4.06,5.18-5.33,2.24-1.27,4.81-1.91,7.72-1.91,3.69,0,6.8,.99,9.32,2.96s4.14,4.65,4.87,8.04h-8.86c-.53-1.12-1.27-1.97-2.2-2.56-.94-.59-2.02-.88-3.25-.88-1.9,0-3.42,.68-4.55,2.04-1.13,1.36-1.7,3.17-1.7,5.44s.57,4.12,1.7,5.48c1.13,1.36,2.65,2.04,4.55,2.04,1.23,0,2.31-.29,3.25-.88,.94-.59,1.67-1.44,2.2-2.56h8.86c-.73,3.39-2.35,6.06-4.87,8.04s-5.62,2.96-9.32,2.96c-2.91,0-5.48-.64-7.72-1.91-2.24-1.27-3.97-3.05-5.18-5.33-1.22-2.28-1.83-4.89-1.83-7.83s.61-5.51,1.83-7.79Z"/><path class="h" d="M93.45,58.58v29.59h-8.23v-11.88h-10.03v11.88h-8.23v-29.59h8.23v11.12h10.03v-11.12h8.23Z"/><path class="h" d="M104.7,86.51c-2.32-1.3-4.16-3.11-5.52-5.41-1.36-2.31-2.04-4.92-2.04-7.83s.68-5.52,2.04-7.83c1.36-2.31,3.2-4.11,5.52-5.39s4.87-1.93,7.64-1.93,5.35,.64,7.66,1.93c2.31,1.29,4.13,3.08,5.48,5.39,1.34,2.31,2.01,4.92,2.01,7.83s-.67,5.52-2.01,7.83c-1.34,2.31-3.18,4.11-5.5,5.41-2.32,1.3-4.87,1.95-7.64,1.95s-5.32-.65-7.64-1.95Zm12.61-7.74c1.22-1.37,1.83-3.2,1.83-5.5s-.61-4.2-1.83-5.56c-1.22-1.36-2.88-2.04-4.97-2.04s-3.79,.68-4.99,2.04c-1.2,1.36-1.8,3.21-1.8,5.56s.6,4.16,1.8,5.52c1.2,1.36,2.87,2.04,4.99,2.04s3.76-.69,4.97-2.06Z"/><path class="h" d="M146.16,88.17l-5.88-10.91h-.88v10.91h-8.23v-29.59h12.97c2.38,0,4.39,.41,6.04,1.24,1.65,.83,2.9,1.96,3.74,3.4,.84,1.44,1.26,3.06,1.26,4.85,0,2.01-.55,3.78-1.66,5.31-1.11,1.53-2.72,2.61-4.85,3.25l6.67,11.54h-9.19Zm-6.76-16.54h4.07c1.12,0,1.96-.27,2.52-.8,.56-.53,.84-1.3,.84-2.31,0-.95-.29-1.7-.86-2.25s-1.41-.82-2.5-.82h-4.07v6.17Z"/><path class="h" d="M178.8,60.45c2.34,1.25,4.13,2.99,5.39,5.23,1.26,2.24,1.89,4.8,1.89,7.68s-.64,5.4-1.91,7.64c-1.27,2.24-3.08,3.99-5.41,5.27-2.34,1.27-5.04,1.91-8.12,1.91h-11.71v-29.59h11.71c3.11,0,5.83,.62,8.16,1.87Zm-3.13,18.49c1.37-1.32,2.06-3.18,2.06-5.58s-.69-4.32-2.06-5.65c-1.37-1.33-3.26-1.99-5.67-1.99h-2.85v15.19h2.85c2.41,0,4.29-.66,5.67-1.97Z"/><path class="h" d="M190.25,87.31c-.88-.8-1.32-1.81-1.32-3.04s.44-2.25,1.32-3.06,2.05-1.22,3.5-1.22,2.58,.41,3.46,1.22c.88,.81,1.32,1.83,1.32,3.06s-.44,2.21-1.32,3.02c-.88,.81-2.04,1.22-3.46,1.22s-2.62-.4-3.5-1.2Z"/></g></g><path class="f" d="M167.5,33.96c-.05,.48-.12,.95-.21,1.42-.04,.19-.14,.36-.28,.49-.12,.11-.26,.2-.4,.29-.59,.41-1.23,.75-1.86,1.08-.8,.41-1.62,.79-2.44,1.16-.69,.31-1.38,.61-2.07,.9-.92,.39-1.85,.76-2.78,1.14-.4,.16-.8,.34-1.22,.47-.7,.24-1.41,.41-2.13,.58-.98,.22-1.97,.39-2.97,.51-.52,.06-1.03,.11-1.55,.16-.37,.03-.73,.05-1.1,.07-.22,0-.44,.01-.67,.02,.59,3.77,2.08,7.24,4.25,10.19,.83-.17,1.65-.34,2.47-.53,1.25-.28,2.49-.56,3.74-.84,1.19-.26,2.38-.52,3.57-.78,1.15-.25,2.3-.5,3.44-.75,.79-.17,1.58-.34,2.37-.51,.7-.15,1.4-.29,2.11-.43,.09-.02,.19-.05,.28-.03,.36,.05,.72,.09,1.08,.14,.34,.04,.68,.09,1.03,.12,.32,.03,.63,.06,.95,.08,.54,.04,1.08,.08,1.63,.09,.49,.01,.99,.02,1.48-.03,.16-.02,.32-.02,.47-.04,.43-.07,.86-.15,1.28-.22,.77-.14,1.52-.37,2.2-.76,.62-.35,1.13-.82,1.51-1.41,.3-.46,.37-.89-.02-1.41-.23-.31-.49-.61-.75-.9-.06-.06-.09-.12-.09-.21,0-.11,0-.23-.02-.34-.03-.15,0-.28,.1-.41,.39-.54,.61-1.14,.61-1.82,0-.25-.05-.47-.19-.67-.06-.09-.12-.18-.18-.27-.22-.3-.46-.57-.7-.85-.2-.22-.39-.44-.66-.57-.08-.03-.13-.07-.08-.16,.01-.02,0-.06-.02-.08-.06-.05-.02-.09,.02-.13,.09-.09,.21-.17,.27-.28,.25-.46,.4-.95,.38-1.48-.02-.32-.13-.59-.36-.82-.19-.19-.4-.37-.62-.53-.39-.3-.81-.58-1.23-.84-.08-.05-.13-.12-.16-.21-.04-.16-.08-.32-.13-.47-.02-.08-.02-.14,.02-.21,.09-.19,.19-.39,.28-.58,.2-.44,.38-.9,.49-1.37,.05-.21,.09-.43,.09-.65,0-.26-.09-.46-.32-.61-.45-.29-.95-.43-1.48-.44-.39,0-.78,.05-1.16,.15-.89,.23-1.71,.61-2.5,1.07-.51,.29-1.01,.61-1.48,.95-.09,.07-.18,.08-.28,.03-.16-.08-.33-.14-.5-.21q-.23-.1-.26-.34c-.1-.66-.23-1.32-.36-1.98-.2-1.01-.43-2.01-.7-3-.19-.68-.39-1.35-.73-1.97-.35-.63-.75-1.21-1.29-1.69-.29-.26-.61-.47-1.01-.52-.17-.02-.33-.02-.48,.07-.32,.19-.55,.45-.64,.82-.04,.16-.04,.31,.03,.46,.06,.12,.12,.24,.19,.36,.25,.41,.52,.81,.75,1.23,.31,.57,.58,1.15,.75,1.78,.19,.71,.27,1.43,.33,2.16,.04,.44,.06,.89,.06,1.34,0,.45,0,.89-.01,1.34-.02,.56-.05,1.13-.11,1.69Z"/><path class="g" d="M169.5,31.34c-.05,.48-.12,.95-.21,1.42-.04,.19-.14,.36-.28,.49-.12,.11-.26,.2-.4,.29-.59,.41-1.23,.75-1.86,1.08-.8,.41-1.62,.79-2.44,1.16-.69,.31-1.38,.61-2.07,.9-.92,.39-1.85,.76-2.78,1.14-.4,.16-.8,.34-1.22,.47-.7,.24-1.41,.41-2.13,.58-.98,.22-1.97,.39-2.97,.51-.52,.06-1.03,.11-1.55,.16-.37,.03-.73,.05-1.1,.07-.22,0-.44,.01-.67,.02,.59,3.77,2.08,7.24,4.25,10.19,.83-.17,1.65-.34,2.47-.53,1.25-.28,2.49-.56,3.74-.84,1.19-.26,2.38-.52,3.57-.78,1.15-.25,2.3-.5,3.44-.75,.79-.17,1.58-.34,2.37-.51,.7-.15,1.4-.29,2.11-.43,.09-.02,.19-.05,.28-.03,.36,.05,.72,.09,1.08,.14,.34,.04,.68,.09,1.03,.12,.32,.03,.63,.06,.95,.08,.54,.04,1.08,.08,1.63,.09,.49,.01,.99,.02,1.48-.03,.16-.02,.32-.02,.47-.04,.43-.07,.86-.15,1.28-.22,.77-.14,1.52-.37,2.2-.76,.62-.35,1.13-.82,1.51-1.41,.3-.46,.37-.89-.02-1.41-.23-.31-.49-.61-.75-.9-.06-.06-.09-.12-.09-.21,0-.11,0-.23-.02-.34-.03-.15,0-.28,.1-.41,.39-.54,.61-1.14,.61-1.82,0-.25-.05-.47-.19-.67-.06-.09-.12-.18-.18-.27-.22-.3-.46-.57-.7-.85-.2-.22-.39-.44-.66-.57-.08-.03-.13-.07-.08-.16,.01-.02,0-.06-.02-.08-.06-.05-.02-.09,.02-.13,.09-.09,.21-.17,.27-.28,.25-.46,.4-.95,.38-1.48-.02-.32-.13-.59-.36-.82-.19-.19-.4-.37-.62-.53-.39-.3-.81-.58-1.23-.84-.08-.05-.13-.12-.16-.21-.04-.16-.08-.32-.13-.47-.02-.08-.02-.14,.02-.21,.09-.19,.19-.39,.28-.58,.2-.44,.38-.9,.49-1.37,.05-.21,.09-.43,.09-.65,0-.26-.09-.46-.32-.61-.45-.29-.95-.43-1.48-.44-.39,0-.78,.05-1.16,.15-.89,.23-1.71,.61-2.5,1.07-.51,.29-1.01,.61-1.48,.95-.09,.07-.18,.08-.28,.03-.16-.08-.33-.14-.5-.21q-.23-.1-.26-.34c-.1-.66-.23-1.32-.36-1.98-.2-1.01-.43-2.01-.7-3-.19-.68-.39-1.35-.73-1.97-.35-.63-.75-1.21-1.29-1.69-.29-.26-.61-.47-1.01-.52-.17-.02-.33-.02-.48,.07-.32,.19-.55,.45-.64,.82-.04,.16-.04,.31,.03,.46,.06,.12,.12,.24,.19,.36,.25,.41,.52,.81,.75,1.23,.31,.57,.58,1.15,.75,1.78,.19,.71,.27,1.43,.33,2.16,.04,.44,.06,.89,.06,1.34,0,.45,0,.89-.01,1.34-.02,.56-.05,1.13-.11,1.69Z"/><path class="e" d="M223.92,3V111.92H3V3H223.92m3-3H0V114.92H226.92V0h0Z"/></g></g></svg>